<svg width="20" height="21" viewBox="0 0 20 21" fill="none" xmlns="http://www.w3.org/2000/svg">
<g clip-path="url(#clip0_2909_10)">
<path fill-rule="evenodd" clip-rule="evenodd" d="M10.3031 3.67902C10.3031 3.2158 10.1953 2.75895 9.98808 2.34463C9.80902 1.98649 9.70389 1.59598 9.67892 1.19635L9.61902 0.238281L9.55916 1.19632C9.53415 1.59595 9.42901 1.98648 9.24995 2.34461C9.0428 2.75894 8.93493 3.21581 8.93493 3.67904V17.3202C8.93493 17.7835 9.0428 18.2403 9.24995 18.6547C9.42901 19.0128 9.53415 19.4033 9.55916 19.803L9.61902 20.761L9.67892 19.8029C9.70389 19.4033 9.80902 19.0128 9.98808 18.6547C10.1953 18.2403 10.3031 17.7835 10.3031 17.3202V3.67902ZM6.56763 3.71281C6.77482 4.12713 6.88265 4.58401 6.88265 5.04723V15.9521C6.88265 16.4153 6.77482 16.8722 6.56763 17.2865C6.38857 17.6446 6.28343 18.0352 6.25842 18.4348L6.19856 19.3928L6.1387 18.4348C6.11369 18.0352 6.00856 17.6446 5.82949 17.2865C5.6223 16.8722 5.51447 16.4153 5.51447 15.9521V5.04723C5.51447 4.58401 5.6223 4.12713 5.82949 3.71281C6.00856 3.35467 6.11369 2.96416 6.1387 2.56452L6.19856 1.60647L6.25842 2.56452C6.28343 2.96416 6.38857 3.35467 6.56763 3.71281ZM5.17243 6.41541C5.17243 5.95215 5.0646 5.49531 4.8574 5.081C4.67834 4.72284 4.57319 4.33233 4.54821 3.9327L4.48833 2.97464L4.42846 3.9327C4.40348 4.33233 4.29832 4.72284 4.11925 5.081C3.91209 5.49531 3.80424 5.95215 3.80424 6.41541V14.5839C3.80424 15.0471 3.91209 15.504 4.11925 15.9183C4.29832 16.2765 4.40348 16.6669 4.42846 17.0666L4.48833 18.0246L4.54821 17.0666C4.57319 16.6669 4.67834 16.2765 4.8574 15.9183C5.0646 15.504 5.17243 15.0471 5.17243 14.5839V6.41541ZM3.14719 7.81733C3.35435 8.23167 3.4622 8.68851 3.4622 9.15177V11.8475C3.4622 12.3107 3.35435 12.7676 3.14719 13.1819C2.96812 13.5401 2.86296 13.9306 2.83799 14.3302L2.77811 15.2883L2.71823 14.3302C2.69325 13.9306 2.5881 13.5401 2.40903 13.1819C2.20187 12.7676 2.09402 12.3107 2.09402 11.8475V9.15177C2.09402 8.68851 2.20187 8.23167 2.40903 7.81733C2.5881 7.4592 2.69325 7.06867 2.71823 6.66908L2.77811 5.71101L2.83799 6.66908C2.86296 7.06867 2.96812 7.4592 3.14719 7.81733ZM1.7519 10.4996L1.75197 10.52V10.4793L1.7519 10.4996ZM0.383789 10.52L0.383858 10.4996C0.386961 10.9559 0.494666 11.4055 0.698801 11.8137C0.877869 12.1719 0.983023 12.5624 1.008 12.962L1.06788 13.9201L1.12776 12.962C1.15274 12.5624 1.25789 12.1719 1.43696 11.8137C1.64109 11.4055 1.7488 10.9559 1.7519 10.4996C1.7488 10.0434 1.64109 9.59378 1.43696 9.18555C1.25789 8.82738 1.15274 8.4369 1.12776 8.03726L1.06788 7.07919L1.008 8.03726C0.983023 8.4369 0.877869 8.82738 0.698801 9.18555C0.494666 9.59378 0.386961 10.0434 0.383858 10.4996L0.383789 10.4793V10.52ZM8.27786 2.34462C8.48505 2.75894 8.59288 3.21581 8.59288 3.67903V17.3202C8.59288 17.7835 8.48505 18.2403 8.27786 18.6547C8.09879 19.0128 7.99366 19.4033 7.96865 19.8029L7.90879 20.761L7.84893 19.8029C7.82392 19.4033 7.71878 19.0128 7.53972 18.6547C7.33253 18.2403 7.2247 17.7835 7.2247 17.3202V3.67903C7.2247 3.21581 7.33253 2.75894 7.53972 2.34462C7.71878 1.98648 7.82392 1.59597 7.84893 1.19634L7.90879 0.238281L7.96865 1.19634C7.99366 1.59597 8.09879 1.98648 8.27786 2.34462ZM11.6983 2.34462C11.9055 2.75894 12.0133 3.21581 12.0133 3.67903V17.3202C12.0133 17.7835 11.9055 18.2403 11.6983 18.6547C11.5192 19.0128 11.4141 19.4033 11.3891 19.8029L11.3292 20.761L11.2694 19.8029C11.2444 19.4033 11.1392 19.0128 10.9602 18.6547C10.753 18.2403 10.6452 17.7835 10.6452 17.3202V3.67903C10.6452 3.21581 10.753 2.75894 10.9602 2.34462C11.1392 1.98648 11.2444 1.59597 11.2694 1.19634L11.3292 0.238281L11.3891 1.19634C11.4141 1.59597 11.5192 1.98648 11.6983 2.34462ZM13.7236 5.04723C13.7236 4.58401 13.6157 4.12713 13.4085 3.71281C13.2295 3.35467 13.1243 2.96416 13.0993 2.56452L13.0395 1.60647L12.9796 2.56452C12.9546 2.96416 12.8495 3.35467 12.6704 3.71281C12.4632 4.12713 12.3554 4.58401 12.3554 5.04723V15.9521C12.3554 16.4153 12.4632 16.8722 12.6704 17.2865C12.8495 17.6446 12.9546 18.0352 12.9796 18.4348L13.0395 19.3928L13.0993 18.4348C13.1243 18.0352 13.2295 17.6446 13.4085 17.2865C13.6157 16.8722 13.7236 16.4153 13.7236 15.9521V5.04723ZM15.1188 5.081C15.326 5.49531 15.4338 5.95215 15.4338 6.41541V14.5839C15.4338 15.0471 15.326 15.504 15.1188 15.9183C14.9397 16.2765 14.8346 16.6669 14.8096 17.0666L14.7497 18.0246L14.6898 17.0666C14.6648 16.6669 14.5597 16.2765 14.3806 15.9183C14.1735 15.504 14.0656 15.0471 14.0656 14.5839V6.41541C14.0656 5.95215 14.1735 5.49531 14.3806 5.081C14.5597 4.72284 14.6648 4.33233 14.6898 3.9327L14.7497 2.97464L14.8096 3.9327C14.8346 4.33233 14.9397 4.72284 15.1188 5.081ZM17.144 9.15177C17.144 8.68851 17.0362 8.23167 16.829 7.81733C16.6499 7.4592 16.5448 7.06867 16.5198 6.66908L16.4599 5.71101L16.4001 6.66908C16.3751 7.06867 16.2699 7.4592 16.0909 7.81733C15.8837 8.23167 15.7758 8.68851 15.7758 9.15177V11.8475C15.7758 12.3107 15.8837 12.7676 16.0909 13.1819C16.2699 13.5401 16.3751 13.9306 16.4001 14.3302L16.4599 15.2883L16.5198 14.3302C16.5448 13.9306 16.6499 13.5401 16.829 13.1819C17.0362 12.7676 17.144 12.3107 17.144 11.8475V9.15177ZM18.8542 10.4996C18.8542 10.5064 18.8542 10.5132 18.8542 10.52V10.4793C18.8542 10.4861 18.8542 10.4929 18.8542 10.4996ZM17.4861 10.4996C17.4892 10.9559 17.5969 11.4055 17.8011 11.8137C17.9801 12.1719 18.0853 12.5624 18.1103 12.962L18.1702 13.9201L18.23 12.962C18.255 12.5624 18.3602 12.1719 18.5392 11.8137C18.7434 11.4055 18.8511 10.9559 18.8542 10.4996C18.8511 10.0434 18.7434 9.59378 18.5392 9.18555C18.3602 8.82738 18.255 8.4369 18.23 8.03726L18.1702 7.07919L18.1103 8.03726C18.0853 8.4369 17.9801 8.82738 17.8011 9.18555C17.5969 9.59378 17.4892 10.0434 17.4861 10.4996ZM17.4861 10.4996C17.4861 10.4929 17.4861 10.4861 17.4861 10.4793V10.52C17.4861 10.5132 17.4861 10.5064 17.4861 10.4996Z" fill="black"/>
</g>
<defs>
<clipPath id="clip0_2909_10">
<rect width="18.8125" height="21" fill="white" transform="translate(0.383789)"/>
</clipPath>
</defs>
</svg>
