<svg width="120" height="21" viewBox="0 0 120 21" fill="currentColor" xmlns="http://www.w3.org/2000/svg">
<g clip-path="url(#clip0_2909_9)">
<path fill-rule="evenodd" clip-rule="evenodd" d="M10.3031 3.67902C10.3031 3.2158 10.1953 2.75895 9.98808 2.34463C9.80902 1.98649 9.70389 1.59598 9.67892 1.19635L9.61902 0.238281L9.55916 1.19632C9.53415 1.59595 9.42901 1.98648 9.24995 2.34461C9.0428 2.75894 8.93493 3.21581 8.93493 3.67904V17.3202C8.93493 17.7835 9.0428 18.2403 9.24995 18.6547C9.42901 19.0128 9.53415 19.4033 9.55916 19.803L9.61902 20.761L9.67892 19.8029C9.70389 19.4033 9.80902 19.0128 9.98808 18.6547C10.1953 18.2403 10.3031 17.7835 10.3031 17.3202V3.67902ZM6.56763 3.71281C6.77482 4.12713 6.88265 4.58401 6.88265 5.04723V15.9521C6.88265 16.4153 6.77482 16.8722 6.56763 17.2865C6.38857 17.6446 6.28343 18.0352 6.25842 18.4348L6.19856 19.3928L6.1387 18.4348C6.11369 18.0352 6.00856 17.6446 5.82949 17.2865C5.6223 16.8722 5.51447 16.4153 5.51447 15.9521V5.04723C5.51447 4.58401 5.6223 4.12713 5.82949 3.71281C6.00856 3.35467 6.11369 2.96416 6.1387 2.56452L6.19856 1.60647L6.25842 2.56452C6.28343 2.96416 6.38857 3.35467 6.56763 3.71281ZM5.17243 6.41541C5.17243 5.95215 5.0646 5.49531 4.8574 5.081C4.67834 4.72284 4.57319 4.33233 4.54821 3.9327L4.48833 2.97464L4.42846 3.9327C4.40348 4.33233 4.29832 4.72284 4.11925 5.081C3.91209 5.49531 3.80424 5.95215 3.80424 6.41541V14.5839C3.80424 15.0471 3.91209 15.504 4.11925 15.9183C4.29832 16.2765 4.40348 16.6669 4.42846 17.0666L4.48833 18.0246L4.54821 17.0666C4.57319 16.6669 4.67834 16.2765 4.8574 15.9183C5.0646 15.504 5.17243 15.0471 5.17243 14.5839V6.41541ZM3.14719 7.81733C3.35435 8.23167 3.4622 8.68851 3.4622 9.15177V11.8475C3.4622 12.3107 3.35435 12.7676 3.14719 13.1819C2.96812 13.5401 2.86296 13.9306 2.83799 14.3302L2.77811 15.2883L2.71823 14.3302C2.69325 13.9306 2.5881 13.5401 2.40903 13.1819C2.20187 12.7676 2.09402 12.3107 2.09402 11.8475V9.15177C2.09402 8.68851 2.20187 8.23167 2.40903 7.81733C2.5881 7.4592 2.69325 7.06867 2.71823 6.66908L2.77811 5.71101L2.83799 6.66908C2.86296 7.06867 2.96812 7.4592 3.14719 7.81733ZM1.7519 10.4996L1.75197 10.52V10.4793L1.7519 10.4996ZM0.383789 10.52L0.383858 10.4996C0.386961 10.9559 0.494666 11.4055 0.698801 11.8137C0.877869 12.1719 0.983023 12.5624 1.008 12.962L1.06788 13.9201L1.12776 12.962C1.15274 12.5624 1.25789 12.1719 1.43696 11.8137C1.64109 11.4055 1.7488 10.9559 1.7519 10.4996C1.7488 10.0434 1.64109 9.59378 1.43696 9.18555C1.25789 8.82738 1.15274 8.4369 1.12776 8.03726L1.06788 7.07919L1.008 8.03726C0.983023 8.4369 0.877869 8.82738 0.698801 9.18555C0.494666 9.59378 0.386961 10.0434 0.383858 10.4996L0.383789 10.4793V10.52ZM8.27786 2.34462C8.48505 2.75894 8.59288 3.21581 8.59288 3.67903V17.3202C8.59288 17.7835 8.48505 18.2403 8.27786 18.6547C8.09879 19.0128 7.99366 19.4033 7.96865 19.8029L7.90879 20.761L7.84893 19.8029C7.82392 19.4033 7.71878 19.0128 7.53972 18.6547C7.33253 18.2403 7.2247 17.7835 7.2247 17.3202V3.67903C7.2247 3.21581 7.33253 2.75894 7.53972 2.34462C7.71878 1.98648 7.82392 1.59597 7.84893 1.19634L7.90879 0.238281L7.96865 1.19634C7.99366 1.59597 8.09879 1.98648 8.27786 2.34462ZM11.6983 2.34462C11.9055 2.75894 12.0133 3.21581 12.0133 3.67903V17.3202C12.0133 17.7835 11.9055 18.2403 11.6983 18.6547C11.5192 19.0128 11.4141 19.4033 11.3891 19.8029L11.3292 20.761L11.2694 19.8029C11.2444 19.4033 11.1392 19.0128 10.9602 18.6547C10.753 18.2403 10.6452 17.7835 10.6452 17.3202V3.67903C10.6452 3.21581 10.753 2.75894 10.9602 2.34462C11.1392 1.98648 11.2444 1.59597 11.2694 1.19634L11.3292 0.238281L11.3891 1.19634C11.4141 1.59597 11.5192 1.98648 11.6983 2.34462ZM13.7236 5.04723C13.7236 4.58401 13.6157 4.12713 13.4085 3.71281C13.2295 3.35467 13.1243 2.96416 13.0993 2.56452L13.0395 1.60647L12.9796 2.56452C12.9546 2.96416 12.8495 3.35467 12.6704 3.71281C12.4632 4.12713 12.3554 4.58401 12.3554 5.04723V15.9521C12.3554 16.4153 12.4632 16.8722 12.6704 17.2865C12.8495 17.6446 12.9546 18.0352 12.9796 18.4348L13.0395 19.3928L13.0993 18.4348C13.1243 18.0352 13.2295 17.6446 13.4085 17.2865C13.6157 16.8722 13.7236 16.4153 13.7236 15.9521V5.04723ZM15.1188 5.081C15.326 5.49531 15.4338 5.95215 15.4338 6.41541V14.5839C15.4338 15.0471 15.326 15.504 15.1188 15.9183C14.9397 16.2765 14.8346 16.6669 14.8096 17.0666L14.7497 18.0246L14.6898 17.0666C14.6648 16.6669 14.5597 16.2765 14.3806 15.9183C14.1735 15.504 14.0656 15.0471 14.0656 14.5839V6.41541C14.0656 5.95215 14.1735 5.49531 14.3806 5.081C14.5597 4.72284 14.6648 4.33233 14.6898 3.9327L14.7497 2.97464L14.8096 3.9327C14.8346 4.33233 14.9397 4.72284 15.1188 5.081ZM17.144 9.15177C17.144 8.68851 17.0362 8.23167 16.829 7.81733C16.6499 7.4592 16.5448 7.06867 16.5198 6.66908L16.4599 5.71101L16.4001 6.66908C16.3751 7.06867 16.2699 7.4592 16.0909 7.81733C15.8837 8.23167 15.7758 8.68851 15.7758 9.15177V11.8475C15.7758 12.3107 15.8837 12.7676 16.0909 13.1819C16.2699 13.5401 16.3751 13.9306 16.4001 14.3302L16.4599 15.2883L16.5198 14.3302C16.5448 13.9306 16.6499 13.5401 16.829 13.1819C17.0362 12.7676 17.144 12.3107 17.144 11.8475V9.15177ZM18.8542 10.4996C18.8542 10.5064 18.8542 10.5132 18.8542 10.52V10.4793C18.8542 10.4861 18.8542 10.4929 18.8542 10.4996ZM17.4861 10.4996C17.4892 10.9559 17.5969 11.4055 17.8011 11.8137C17.9801 12.1719 18.0853 12.5624 18.1103 12.962L18.1702 13.9201L18.23 12.962C18.255 12.5624 18.3602 12.1719 18.5392 11.8137C18.7434 11.4055 18.8511 10.9559 18.8542 10.4996C18.8511 10.0434 18.7434 9.59378 18.5392 9.18555C18.3602 8.82738 18.255 8.4369 18.23 8.03726L18.1702 7.07919L18.1103 8.03726C18.0853 8.4369 17.9801 8.82738 17.8011 9.18555C17.5969 9.59378 17.4892 10.0434 17.4861 10.4996ZM17.4861 10.4996C17.4861 10.4929 17.4861 10.4861 17.4861 10.4793V10.52C17.4861 10.5132 17.4861 10.5064 17.4861 10.4996Z" fill="black"/>
</g>
<path d="M28.4088 5.79935H30.8475L34.4785 15.5H32.1481L31.403 13.3323H27.8533L27.1081 15.5H24.7778L28.4088 5.79935ZM30.7256 11.4084L30.021 9.37613L29.6959 8.18387H29.5604L29.2352 9.37613L28.5307 11.4084H30.7256ZM39.6383 14.66H39.5028C39.0512 15.3645 38.3738 15.7168 37.4705 15.7168C36.6396 15.7168 36.0209 15.4503 35.6144 14.9174C35.208 14.3845 35.0047 13.6845 35.0047 12.8174V8.86129H37.037V12.5871C37.037 12.9484 37.1228 13.2465 37.2944 13.4813C37.466 13.7071 37.7325 13.82 38.0938 13.82C38.5544 13.82 38.9022 13.6439 39.137 13.2916C39.3809 12.9394 39.5028 12.4787 39.5028 11.9097V8.86129H41.5351V15.5H39.6383V14.66ZM43.8481 10.5684H42.683V8.86129H43.8481V6.82903H45.8804V8.86129H47.5197V10.5684H45.8804V12.8039C45.8804 12.9484 45.8984 13.0839 45.9346 13.2103C45.9707 13.3277 46.0339 13.4271 46.1243 13.5084C46.2597 13.6258 46.4359 13.6845 46.6526 13.6845C46.7972 13.6845 46.9191 13.6665 47.0184 13.6303C47.1178 13.5942 47.2036 13.549 47.2759 13.4948L47.8449 15.2561C47.6101 15.3645 47.3572 15.4503 47.0862 15.5135C46.8152 15.5768 46.5262 15.6084 46.2191 15.6084C45.5055 15.6084 44.941 15.4006 44.5255 14.9852C44.3088 14.7684 44.1417 14.5019 44.0243 14.1858C43.9068 13.8606 43.8481 13.5039 43.8481 13.1155V10.5684ZM52.0032 8.64452C52.518 8.64452 52.9922 8.73484 53.4258 8.91548C53.8684 9.0871 54.2477 9.33097 54.5638 9.6471C54.889 9.95419 55.1374 10.3245 55.309 10.7581C55.4896 11.1916 55.58 11.6658 55.58 12.1806C55.58 12.6955 55.4896 13.1697 55.309 13.6032C55.1374 14.0368 54.889 14.4116 54.5638 14.7277C54.2477 15.0348 53.8684 15.2787 53.4258 15.4594C52.9922 15.631 52.518 15.7168 52.0032 15.7168C51.4884 15.7168 51.0096 15.631 50.5671 15.4594C50.1335 15.2787 49.7542 15.0348 49.429 14.7277C49.1129 14.4116 48.8645 14.0368 48.6838 13.6032C48.5122 13.1697 48.4264 12.6955 48.4264 12.1806C48.4264 11.6658 48.5122 11.1916 48.6838 10.7581C48.8645 10.3245 49.1129 9.95419 49.429 9.6471C49.7542 9.33097 50.1335 9.0871 50.5671 8.91548C51.0096 8.73484 51.4884 8.64452 52.0032 8.64452ZM52.0032 13.82C52.2109 13.82 52.4051 13.7839 52.5858 13.7116C52.7755 13.6303 52.9425 13.5219 53.0871 13.3865C53.2316 13.2419 53.3445 13.0703 53.4258 12.8716C53.5071 12.6639 53.5477 12.4335 53.5477 12.1806C53.5477 11.9277 53.5071 11.7019 53.4258 11.5032C53.3445 11.3045 53.2316 11.1329 53.0871 10.9884C52.9425 10.8439 52.7755 10.7355 52.5858 10.6632C52.4051 10.5819 52.2109 10.5413 52.0032 10.5413C51.7955 10.5413 51.5967 10.5819 51.4071 10.6632C51.2264 10.7355 51.0638 10.8439 50.9193 10.9884C50.7748 11.1329 50.6619 11.3045 50.5806 11.5032C50.4993 11.7019 50.4587 11.9277 50.4587 12.1806C50.4587 12.4335 50.4993 12.6639 50.5806 12.8716C50.6619 13.0703 50.7748 13.2419 50.9193 13.3865C51.0638 13.5219 51.2264 13.6303 51.4071 13.7116C51.5967 13.7839 51.7955 13.82 52.0032 13.82ZM56.1217 5.79935H58.3978L60.2404 11.1374L60.6062 12.4923H60.7417L61.1346 11.1374L63.0585 5.79935H65.3346L61.7849 15.5H59.563L56.1217 5.79935ZM67.1172 8.12968C66.9365 8.12968 66.7694 8.09806 66.6159 8.03484C66.4623 7.96258 66.3268 7.87226 66.2094 7.76387C66.101 7.64645 66.0107 7.51097 65.9385 7.35742C65.8752 7.20387 65.8436 7.03677 65.8436 6.85613C65.8436 6.68452 65.8752 6.52194 65.9385 6.36839C66.0107 6.20581 66.101 6.07032 66.2094 5.96193C66.3268 5.84452 66.4623 5.75419 66.6159 5.69097C66.7694 5.61871 66.9365 5.58258 67.1172 5.58258C67.2888 5.58258 67.4514 5.61871 67.6049 5.69097C67.7675 5.75419 67.903 5.84452 68.0114 5.96193C68.1288 6.07032 68.2191 6.20581 68.2823 6.36839C68.3546 6.52194 68.3907 6.68452 68.3907 6.85613C68.3907 7.03677 68.3546 7.20387 68.2823 7.35742C68.2191 7.51097 68.1288 7.64645 68.0114 7.76387C67.903 7.87226 67.7675 7.96258 67.6049 8.03484C67.4514 8.09806 67.2888 8.12968 67.1172 8.12968ZM66.101 15.5V8.86129H68.1333V15.5H66.101ZM74.5747 14.7684H74.4392C74.2857 15.0303 74.0463 15.2561 73.7212 15.4458C73.405 15.6265 73.0031 15.7168 72.5153 15.7168C72.0908 15.7168 71.6844 15.631 71.296 15.4594C70.9076 15.2877 70.5644 15.0484 70.2663 14.7413C69.9773 14.4252 69.747 14.0503 69.5753 13.6168C69.4037 13.1832 69.3179 12.7045 69.3179 12.1806C69.3179 11.6568 69.4037 11.1781 69.5753 10.7445C69.747 10.311 69.9773 9.94064 70.2663 9.63355C70.5644 9.31742 70.9076 9.07355 71.296 8.90194C71.6844 8.73032 72.0908 8.64452 72.5153 8.64452C73.0031 8.64452 73.405 8.73935 73.7212 8.92903C74.0463 9.10968 74.2857 9.33097 74.4392 9.5929H74.5747L74.4392 8.64452V5.79935H76.4715V15.5H74.5747V14.7684ZM72.9624 13.82C73.1792 13.82 73.3824 13.7839 73.5721 13.7116C73.7708 13.6303 73.9424 13.5219 74.087 13.3865C74.2405 13.2419 74.3579 13.0703 74.4392 12.8716C74.5295 12.6639 74.5747 12.4335 74.5747 12.1806C74.5747 11.9277 74.5295 11.7019 74.4392 11.5032C74.3579 11.3045 74.2405 11.1329 74.087 10.9884C73.9424 10.8439 73.7708 10.7355 73.5721 10.6632C73.3824 10.5819 73.1792 10.5413 72.9624 10.5413C72.7457 10.5413 72.5379 10.5819 72.3392 10.6632C72.1495 10.7355 71.9779 10.8439 71.8244 10.9884C71.6799 11.1329 71.5624 11.3045 71.4721 11.5032C71.3908 11.7019 71.3502 11.9277 71.3502 12.1806C71.3502 12.4335 71.3908 12.6639 71.4721 12.8716C71.5624 13.0703 71.6799 13.2419 71.8244 13.3865C71.9779 13.5219 72.1495 13.6303 72.3392 13.7116C72.5379 13.7839 72.7457 13.82 72.9624 13.82ZM84.3488 13.8877C84.0236 14.4568 83.5946 14.9039 83.0617 15.229C82.5378 15.5542 81.9011 15.7168 81.1514 15.7168C80.6365 15.7168 80.1578 15.631 79.7153 15.4594C79.2817 15.2787 78.9024 15.0303 78.5772 14.7142C78.252 14.3981 77.9991 14.0277 77.8185 13.6032C77.6378 13.1697 77.5475 12.6955 77.5475 12.1806C77.5475 11.7019 77.6378 11.2503 77.8185 10.8258C77.9991 10.3923 78.2475 10.0174 78.5636 9.70129C78.8888 9.37613 79.2636 9.11871 79.6882 8.92903C80.1217 8.73935 80.5914 8.64452 81.0972 8.64452C81.6482 8.64452 82.1314 8.73484 82.5469 8.91548C82.9714 9.09613 83.3236 9.34452 83.6036 9.66064C83.8836 9.96774 84.0959 10.3335 84.2404 10.7581C84.3849 11.1735 84.4572 11.6206 84.4572 12.0994C84.4572 12.1716 84.4527 12.2439 84.4436 12.3161C84.4436 12.3884 84.4391 12.4516 84.4301 12.5058C84.4211 12.569 84.4165 12.6277 84.4165 12.6819H79.5256C79.6249 13.1155 79.8282 13.4316 80.1353 13.6303C80.4424 13.829 80.7856 13.9284 81.1649 13.9284C81.5443 13.9284 81.8559 13.8471 82.0998 13.6845C82.3527 13.5219 82.5514 13.3142 82.6959 13.0613L84.3488 13.8877ZM82.5469 11.3C82.5288 11.1916 82.4836 11.0742 82.4114 10.9477C82.3482 10.8213 82.2533 10.7084 82.1269 10.609C82.0095 10.5006 81.8604 10.4148 81.6798 10.3516C81.5082 10.2794 81.314 10.2432 81.0972 10.2432C80.7811 10.2432 80.4875 10.3335 80.2165 10.5142C79.9456 10.6948 79.7469 10.9568 79.6204 11.3H82.5469ZM88.8643 8.64452C89.3792 8.64452 89.8534 8.73484 90.2869 8.91548C90.7295 9.0871 91.1088 9.33097 91.425 9.6471C91.7501 9.95419 91.9985 10.3245 92.1701 10.7581C92.3508 11.1916 92.4411 11.6658 92.4411 12.1806C92.4411 12.6955 92.3508 13.1697 92.1701 13.6032C91.9985 14.0368 91.7501 14.4116 91.425 14.7277C91.1088 15.0348 90.7295 15.2787 90.2869 15.4594C89.8534 15.631 89.3792 15.7168 88.8643 15.7168C88.3495 15.7168 87.8708 15.631 87.4282 15.4594C86.9947 15.2787 86.6153 15.0348 86.2901 14.7277C85.974 14.4116 85.7256 14.0368 85.545 13.6032C85.3734 13.1697 85.2876 12.6955 85.2876 12.1806C85.2876 11.6658 85.3734 11.1916 85.545 10.7581C85.7256 10.3245 85.974 9.95419 86.2901 9.6471C86.6153 9.33097 86.9947 9.0871 87.4282 8.91548C87.8708 8.73484 88.3495 8.64452 88.8643 8.64452ZM88.8643 13.82C89.0721 13.82 89.2663 13.7839 89.4469 13.7116C89.6366 13.6303 89.8037 13.5219 89.9482 13.3865C90.0927 13.2419 90.2056 13.0703 90.2869 12.8716C90.3682 12.6639 90.4088 12.4335 90.4088 12.1806C90.4088 11.9277 90.3682 11.7019 90.2869 11.5032C90.2056 11.3045 90.0927 11.1329 89.9482 10.9884C89.8037 10.8439 89.6366 10.7355 89.4469 10.6632C89.2663 10.5819 89.0721 10.5413 88.8643 10.5413C88.6566 10.5413 88.4579 10.5819 88.2682 10.6632C88.0876 10.7355 87.925 10.8439 87.7805 10.9884C87.6359 11.1329 87.523 11.3045 87.4418 11.5032C87.3605 11.7019 87.3198 11.9277 87.3198 12.1806C87.3198 12.4335 87.3605 12.6639 87.4418 12.8716C87.523 13.0703 87.6359 13.2419 87.7805 13.3865C87.925 13.5219 88.0876 13.6303 88.2682 13.7116C88.4579 13.7839 88.6566 13.82 88.8643 13.82ZM98.4293 10.1077H103.212C103.239 10.2161 103.262 10.3561 103.28 10.5277C103.307 10.6994 103.32 10.8619 103.32 11.0155C103.32 11.7019 103.221 12.3116 103.022 12.8445C102.823 13.3774 102.534 13.8471 102.155 14.2535C101.722 14.7142 101.198 15.0755 100.583 15.3374C99.9693 15.5903 99.2693 15.7168 98.4835 15.7168C97.779 15.7168 97.1106 15.5903 96.4783 15.3374C95.8551 15.0845 95.3086 14.7368 94.839 14.2942C94.3693 13.8426 93.999 13.3097 93.728 12.6955C93.457 12.0723 93.3215 11.3903 93.3215 10.6497C93.3215 9.90903 93.457 9.23161 93.728 8.61742C93.999 7.99419 94.3693 7.46129 94.839 7.01871C95.3086 6.5671 95.8551 6.21484 96.4783 5.96193C97.1106 5.70903 97.779 5.58258 98.4835 5.58258C99.3054 5.58258 100.019 5.72258 100.624 6.00258C101.238 6.28258 101.776 6.66645 102.236 7.15419L100.8 8.56323C100.484 8.2471 100.145 8.00774 99.7841 7.84516C99.4319 7.67355 98.9893 7.58774 98.4564 7.58774C98.0409 7.58774 97.648 7.66452 97.2777 7.81806C96.9164 7.96258 96.5957 8.17032 96.3157 8.44129C96.0448 8.70323 95.828 9.02387 95.6654 9.40323C95.5119 9.77355 95.4351 10.189 95.4351 10.6497C95.4351 11.1103 95.5119 11.5303 95.6654 11.9097C95.828 12.28 96.0493 12.6006 96.3293 12.8716C96.6093 13.1335 96.9344 13.3413 97.3048 13.4948C97.6751 13.6394 98.0725 13.7116 98.497 13.7116C99.328 13.7116 99.9919 13.4903 100.489 13.0477C100.642 12.9123 100.782 12.7452 100.909 12.5465C101.044 12.3387 101.153 12.1129 101.234 11.869H98.4293V10.1077ZM110.983 13.8877C110.657 14.4568 110.228 14.9039 109.695 15.229C109.172 15.5542 108.535 15.7168 107.785 15.7168C107.27 15.7168 106.792 15.631 106.349 15.4594C105.915 15.2787 105.536 15.0303 105.211 14.7142C104.886 14.3981 104.633 14.0277 104.452 13.6032C104.272 13.1697 104.181 12.6955 104.181 12.1806C104.181 11.7019 104.272 11.2503 104.452 10.8258C104.633 10.3923 104.881 10.0174 105.197 9.70129C105.523 9.37613 105.897 9.11871 106.322 8.92903C106.755 8.73935 107.225 8.64452 107.731 8.64452C108.282 8.64452 108.765 8.73484 109.181 8.91548C109.605 9.09613 109.957 9.34452 110.237 9.66064C110.517 9.96774 110.73 10.3335 110.874 10.7581C111.019 11.1735 111.091 11.6206 111.091 12.0994C111.091 12.1716 111.086 12.2439 111.077 12.3161C111.077 12.3884 111.073 12.4516 111.064 12.5058C111.055 12.569 111.05 12.6277 111.05 12.6819H106.159C106.259 13.1155 106.462 13.4316 106.769 13.6303C107.076 13.829 107.419 13.9284 107.799 13.9284C108.178 13.9284 108.49 13.8471 108.733 13.6845C108.986 13.5219 109.185 13.3142 109.33 13.0613L110.983 13.8877ZM109.181 11.3C109.163 11.1916 109.117 11.0742 109.045 10.9477C108.982 10.8213 108.887 10.7084 108.761 10.609C108.643 10.5006 108.494 10.4148 108.313 10.3516C108.142 10.2794 107.948 10.2432 107.731 10.2432C107.415 10.2432 107.121 10.3335 106.85 10.5142C106.579 10.6948 106.381 10.9568 106.254 11.3H109.181ZM114.131 9.70129H114.267C114.718 8.99677 115.396 8.64452 116.299 8.64452C117.13 8.64452 117.749 8.91097 118.155 9.44387C118.562 9.97677 118.765 10.6768 118.765 11.5439V15.5H116.733V11.7742C116.733 11.4129 116.647 11.1194 116.475 10.8935C116.303 10.6587 116.037 10.5413 115.676 10.5413C115.215 10.5413 114.863 10.7174 114.619 11.0697C114.384 11.4219 114.267 11.8826 114.267 12.4516V15.5H112.234V8.86129H114.131V9.70129Z" fill="black"/>
<defs>
<clipPath id="clip0_2909_9">
<rect width="18.8125" height="21" fill="white" transform="translate(0.383789)"/>
</clipPath>
</defs>
</svg>
